<?xml version="1.0" encoding="UTF-8" standalone="no"?>
<!-- Created with Inkscape (http://www.inkscape.org/) -->

<svg
   xmlns:dc="http://purl.org/dc/elements/1.1/"
   xmlns:cc="http://creativecommons.org/ns#"
   xmlns:rdf="http://www.w3.org/1999/02/22-rdf-syntax-ns#"
   xmlns:svg="http://www.w3.org/2000/svg"
   xmlns="http://www.w3.org/2000/svg"
   xmlns:sodipodi="http://sodipodi.sourceforge.net/DTD/sodipodi-0.dtd"
   xmlns:inkscape="http://www.inkscape.org/namespaces/inkscape"
   width="300mm"
   height="300mm"
   viewBox="0 0 300 300"
   version="1.1"
   id="svg8"
   sodipodi:docname="browser.svg"
   inkscape:version="0.92.5 (2060ec1f9f, 2020-04-08)">
  <defs
     id="defs2" />
  <sodipodi:namedview
     id="base"
     pagecolor="#ffffff"
     bordercolor="#666666"
     borderopacity="1.0"
     inkscape:pageopacity="0.0"
     inkscape:pageshadow="2"
     inkscape:zoom="0.7"
     inkscape:cx="170.51834"
     inkscape:cy="511.16295"
     inkscape:document-units="px"
     inkscape:current-layer="layer1"
     showgrid="false"
     inkscape:pagecheckerboard="false"
     inkscape:window-width="3440"
     inkscape:window-height="1384"
     inkscape:window-x="0"
     inkscape:window-y="24"
     inkscape:window-maximized="1" />
  <metadata
     id="metadata5">
    <rdf:RDF>
      <cc:Work
         rdf:about="">
        <dc:format>image/svg+xml</dc:format>
        <dc:type
           rdf:resource="http://purl.org/dc/dcmitype/StillImage" />
        <dc:title />
      </cc:Work>
    </rdf:RDF>
  </metadata>
  <g
     inkscape:label="Layer 1"
     inkscape:groupmode="layer"
     id="layer1"
     transform="translate(0,3)">
    <rect
       style="fill:#add8e6;fill-opacity:1;stroke-width:7.93749994;stroke:#000000;stroke-opacity:1;stroke-miterlimit:4;stroke-dasharray:none"
       id="rect4555"
       width="301.625"
       height="299.73511"
       x="0"
       y="-3.1130931" />
    <rect
       style="fill:#add8e6;fill-opacity:1;stroke:#000000;stroke-width:7.9375;stroke-miterlimit:4;stroke-dasharray:none;stroke-opacity:1"
       id="rect885"
       width="98.273804"
       height="95.627968"
       x="22.678572"
       y="178.69345" />
    <rect
       style="fill:#add8e6;fill-opacity:1;stroke:#000000;stroke-width:7.9375;stroke-miterlimit:4;stroke-dasharray:none;stroke-opacity:1"
       id="rect885-3"
       width="98.273804"
       height="95.627975"
       x="179.91667"
       y="20.888388" />
    <rect
       style="fill:#add8e6;fill-opacity:1;stroke:#000000;stroke-width:7.9375;stroke-miterlimit:4;stroke-dasharray:none;stroke-opacity:1"
       id="rect885-3-6"
       width="98.273804"
       height="95.627975"
       x="180.67262"
       y="178.1265" />
    <rect
       style="fill:#add8e6;fill-opacity:1;stroke:#000000;stroke-width:7.9375;stroke-miterlimit:4;stroke-dasharray:none;stroke-opacity:1"
       id="rect885-3-7"
       width="98.273804"
       height="95.627975"
       x="24.946426"
       y="20.510418"
       ry="0" />
    <rect
       style="fill:#add8e6;fill-opacity:1;stroke:#000000;stroke-width:7.9375;stroke-miterlimit:4;stroke-dasharray:none;stroke-opacity:1"
       id="rect929"
       width="32.127968"
       height="28.915178"
       x="91.092255"
       y="20.510418" />
    <rect
       style="fill:#add8e6;fill-opacity:1;stroke:#000000;stroke-width:7.9375;stroke-miterlimit:4;stroke-dasharray:none;stroke-opacity:1"
       id="rect929-5"
       width="32.127968"
       height="28.915178"
       x="246.62947"
       y="178.37216" />
    <path
       style="fill:#add8e6;fill-opacity:1;stroke:#000000;stroke-width:42.8571434;stroke-miterlimit:4;stroke-dasharray:none;stroke-opacity:1"
       d="m 359.37548,143.4096 v -38.57143 h 45 45 v 38.57143 38.57143 h -45 -45 z"
       id="path946"
       inkscape:connector-curvature="0"
       transform="matrix(0.26458333,0,0,0.26458333,0,-3)" />
    <path
       style="fill:#add8e6;fill-opacity:1;stroke:#000000;stroke-width:42.8571434;stroke-miterlimit:4;stroke-dasharray:none;stroke-opacity:1"
       d="m 947.94691,739.83817 v -39.28571 h 45 44.99999 v 39.28571 39.28571 h -44.99999 -45 z"
       id="path954"
       inkscape:connector-curvature="0"
       transform="matrix(0.26458333,0,0,0.26458333,0,-3)" />
    <path
       style="fill:#add8e6;fill-opacity:1;stroke:#000000;stroke-width:42.8571434;stroke-miterlimit:4;stroke-dasharray:none;stroke-opacity:1"
       d="m 969.37548,739.83817 v -17.85714 h 23.57143 23.57139 v 17.85714 17.85714 h -23.57139 -23.57143 z"
       id="path956"
       inkscape:connector-curvature="0"
       transform="matrix(0.26458333,0,0,0.26458333,0,-3)" />
    <path
       style="fill:#add8e6;fill-opacity:1;stroke:#000000;stroke-width:42.8571434;stroke-miterlimit:4;stroke-dasharray:none;stroke-opacity:1"
       d="m 380.80405,143.4096 v -17.14286 h 23.57143 23.57143 v 17.14286 17.14286 h -23.57143 -23.57143 z"
       id="path958"
       inkscape:connector-curvature="0"
       transform="matrix(0.26458333,0,0,0.26458333,0,-3)" />
    <path
       style="fill:#add8e6;fill-opacity:1;stroke:#000000;stroke-width:42.8571434;stroke-miterlimit:4;stroke-dasharray:none;stroke-opacity:1"
       d="m 100.80405,866.98103 v -165 h 170 170 v 165 164.99997 h -170 -170 z"
       id="path960"
       inkscape:connector-curvature="0"
       transform="matrix(0.26458333,0,0,0.26458333,0,-3)" />
    <path
       style="fill:#add8e6;fill-opacity:1;stroke:#000000;stroke-width:42.8571434;stroke-miterlimit:4;stroke-dasharray:none;stroke-opacity:1"
       d="M 122.23263,866.98103 V 723.4096 H 270.80405 419.37548 V 866.98103 1010.5525 H 270.80405 122.23263 Z"
       id="path962"
       inkscape:connector-curvature="0"
       transform="matrix(0.26458333,0,0,0.26458333,0,-3)" />
    <path
       style="fill:#add8e6;fill-opacity:1;stroke:#000000;stroke-width:42.8571434;stroke-miterlimit:4;stroke-dasharray:none;stroke-opacity:1"
       d="M 143.6612,866.98103 V 744.83817 H 270.80405 397.94691 V 866.98103 989.12388 H 270.80405 143.6612 Z"
       id="path964"
       inkscape:connector-curvature="0"
       transform="matrix(0.26458333,0,0,0.26458333,0,-3)" />
    <path
       style="fill:#add8e6;fill-opacity:1;stroke:#000000;stroke-width:42.8571434;stroke-miterlimit:4;stroke-dasharray:none;stroke-opacity:1"
       d="M 165.08977,866.98103 V 766.26674 H 270.80405 376.51834 V 866.98103 967.69531 H 270.80405 165.08977 Z"
       id="path966"
       inkscape:connector-curvature="0"
       transform="matrix(0.26458333,0,0,0.26458333,0,-3)" />
    <path
       style="fill:#add8e6;fill-opacity:1;stroke:#000000;stroke-width:42.8571434;stroke-miterlimit:4;stroke-dasharray:none;stroke-opacity:1"
       d="m 186.51834,866.98103 v -79.28572 h 84.28571 84.28572 v 79.28572 79.28571 h -84.28572 -84.28571 z"
       id="path968"
       inkscape:connector-curvature="0"
       transform="matrix(0.26458333,0,0,0.26458333,0,-3)" />
    <path
       style="fill:#add8e6;fill-opacity:1;stroke:#000000;stroke-width:42.8571434;stroke-miterlimit:4;stroke-dasharray:none;stroke-opacity:1"
       d="m 207.94691,866.98103 v -57.85715 h 62.85714 62.85715 v 57.85715 57.85714 h -62.85715 -62.85714 z"
       id="path970"
       inkscape:connector-curvature="0"
       transform="matrix(0.26458333,0,0,0.26458333,0,-3)" />
    <path
       style="fill:#add8e6;fill-opacity:1;stroke:#000000;stroke-width:42.8571434;stroke-miterlimit:4;stroke-dasharray:none;stroke-opacity:1"
       d="m 229.37548,866.98103 v -36.42857 h 41.42857 41.42858 v 36.42857 36.42857 h -41.42858 -41.42857 z"
       id="path972"
       inkscape:connector-curvature="0"
       transform="matrix(0.26458333,0,0,0.26458333,0,-3)" />
    <path
       style="fill:#add8e6;fill-opacity:1;stroke:#000000;stroke-width:42.8571434;stroke-miterlimit:4;stroke-dasharray:none;stroke-opacity:1"
       d="m 250.80405,866.98103 v -15 h 20 20 v 15 15 h -20 -20 z"
       id="path974"
       inkscape:connector-curvature="0"
       transform="matrix(0.26458333,0,0,0.26458333,0,-3)" />
    <path
       style="fill:#add8e6;fill-opacity:1;stroke:#000000;stroke-width:42.8571434;stroke-miterlimit:4;stroke-dasharray:none;stroke-opacity:1"
       d="m 695.08977,271.26674 v -165 h 170 170.00003 v 165 165 h -170.00003 -170 z"
       id="path976"
       inkscape:connector-curvature="0"
       transform="matrix(0.26458333,0,0,0.26458333,0,-3)" />
    <path
       style="fill:#add8e6;fill-opacity:1;stroke:#000000;stroke-width:42.8571434;stroke-miterlimit:4;stroke-dasharray:none;stroke-opacity:1"
       d="M 716.51834,271.26674 V 127.69531 H 865.08977 1013.6612 V 271.26674 414.83817 H 865.08977 716.51834 Z"
       id="path978"
       inkscape:connector-curvature="0"
       transform="matrix(0.26458333,0,0,0.26458333,0,-3)" />
    <path
       style="fill:#add8e6;fill-opacity:1;stroke:#000000;stroke-width:42.8571434;stroke-miterlimit:4;stroke-dasharray:none;stroke-opacity:1"
       d="M 737.94691,271.26674 V 149.12388 H 865.08977 992.23263 V 271.26674 393.4096 H 865.08977 737.94691 Z"
       id="path980"
       inkscape:connector-curvature="0"
       transform="matrix(0.26458333,0,0,0.26458333,0,-3)" />
    <path
       style="fill:#add8e6;fill-opacity:1;stroke:#000000;stroke-width:42.8571434;stroke-miterlimit:4;stroke-dasharray:none;stroke-opacity:1"
       d="M 759.37548,271.26674 V 170.55246 H 865.08977 970.80405 V 271.26674 371.98103 H 865.08977 759.37548 Z"
       id="path982"
       inkscape:connector-curvature="0"
       transform="matrix(0.26458333,0,0,0.26458333,0,-3)" />
    <path
       style="fill:#add8e6;fill-opacity:1;stroke:#000000;stroke-width:42.8571434;stroke-miterlimit:4;stroke-dasharray:none;stroke-opacity:1"
       d="m 780.80405,271.26674 v -79.28571 h 84.28572 84.28571 v 79.28571 79.28572 h -84.28571 -84.28572 z"
       id="path984"
       inkscape:connector-curvature="0"
       transform="matrix(0.26458333,0,0,0.26458333,0,-3)" />
    <path
       style="fill:#add8e6;fill-opacity:1;stroke:#000000;stroke-width:42.8571434;stroke-miterlimit:4;stroke-dasharray:none;stroke-opacity:1"
       d="M 802.23263,271.26674 V 213.4096 h 62.85714 62.85714 v 57.85714 57.85714 h -62.85714 -62.85714 z"
       id="path986"
       inkscape:connector-curvature="0"
       transform="matrix(0.26458333,0,0,0.26458333,0,-3)" />
    <path
       style="fill:#add8e6;fill-opacity:1;stroke:#000000;stroke-width:42.8571434;stroke-miterlimit:4;stroke-dasharray:none;stroke-opacity:1"
       d="m 823.6612,271.26674 v -36.42857 h 41.42857 41.42857 v 36.42857 36.42857 H 865.08977 823.6612 Z"
       id="path988"
       inkscape:connector-curvature="0"
       transform="matrix(0.26458333,0,0,0.26458333,0,-3)" />
    <path
       style="fill:#add8e6;fill-opacity:1;stroke:#000000;stroke-width:42.8571434;stroke-miterlimit:4;stroke-dasharray:none;stroke-opacity:1"
       d="m 845.08977,271.26674 v -15 h 20 20 v 15 15 h -20 -20 z"
       id="path990"
       inkscape:connector-curvature="0"
       transform="matrix(0.26458333,0,0,0.26458333,0,-3)" />
  </g>
</svg>
